HIERARCHY
ROOT Hips
{
  OFFSET 54.5375 93.8192 7.36413
  CHANNELS 6 Xposition Yposition Zposition Zrotation Xrotation Yrotation
  JOINT spine
  {
    OFFSET 0 7.4756 0.429885
    CHANNELS 3 Zrotation Xrotation Yrotation
    JOINT spine1
    {
      OFFSET 0 9.92301 0
      CHANNELS 3 Zrotation Xrotation Yrotation
      JOINT spine2
      {
        OFFSET 0 9.50804 0
        CHANNELS 3 Zrotation Xrotation Yrotation
        JOINT Neck
        {
          OFFSET 0 24.4111 1.16384
          CHANNELS 3 Zrotation Xrotation Yrotation
          JOINT Head
          {
            OFFSET 0 7.37523 0
            CHANNELS 3 Zrotation Xrotation Yrotation
            End Site
            {
              OFFSET 0 17.8522 -5.88741
            }
          }
        }
        JOINT RightShoulder
        {
          OFFSET -4.00356 10.2679 -0.557468
          CHANNELS 3 Zrotation Xrotation Yrotation
          JOINT RightArm
          {
            OFFSET 0 13.4673 0
            CHANNELS 3 Zrotation Xrotation Yrotation
            JOINT RightArmRoll
            {
              OFFSET 0 6.79858 0
              CHANNELS 3 Zrotation Xrotation Yrotation
              JOINT RightForeArm
              {
                OFFSET 0 19.8018 0
                CHANNELS 3 Zrotation Xrotation Yrotation
                JOINT RightForeArmRoll
                {
                  OFFSET 0 7.62905 0
                  CHANNELS 3 Zrotation Xrotation Yrotation
                  JOINT RightHand
                  {
                    OFFSET 0 15.3098 0
                    CHANNELS 3 Zrotation Xrotation Yrotation
                    End Site
                    {
                      OFFSET 0 0 0
                    }
                  }
                }
              }
            }
          }
        }
        JOINT LeftShoulder
        {
          OFFSET 4.00356 10.2679 -0.557468
          CHANNELS 3 Zrotation Xrotation Yrotation
          JOINT LeftArm
          {
            OFFSET 0 13.4673 0
            CHANNELS 3 Zrotation Xrotation Yrotation
            JOINT LeftArmRoll
            {
              OFFSET 0 6.79858 0
              CHANNELS 3 Zrotation Xrotation Yrotation
              JOINT LeftForeArm
              {
                OFFSET 0 19.8018 0
                CHANNELS 3 Zrotation Xrotation Yrotation
                JOINT LeftForeArmRoll
                {
                  OFFSET 0 7.62905 0
                  CHANNELS 3 Zrotation Xrotation Yrotation
                  JOINT LeftHand
                  {
                    OFFSET 0 15.3098 0
                    CHANNELS 3 Zrotation Xrotation Yrotation
                    End Site
                    {
                      OFFSET 0 0 0
                    }
                  }
                }
              }
            }
          }
        }
      }
    }
  }
  JOINT RightUpLeg
  {
    OFFSET -6.62609 -1.21505 -1.01927
    CHANNELS 3 Zrotation Xrotation Yrotation
    JOINT RightUpLegRoll
    {
      OFFSET 0 17.9517 0
      CHANNELS 3 Zrotation Xrotation Yrotation
      JOINT RightLeg
      {
        OFFSET 0 -22.2304 0
        CHANNELS 3 Zrotation Xrotation Yrotation
        JOINT RightLegRoll
        {
          OFFSET 0 22.3032 0
          CHANNELS 3 Zrotation Xrotation Yrotation
          JOINT RightFoot
          {
            OFFSET 0 18.5636 0
            CHANNELS 3 Zrotation Xrotation Yrotation
            JOINT RightToeBase
            {
              OFFSET 0 15.5183 0
              CHANNELS 3 Zrotation Xrotation Yrotation
              End Site
              {
                OFFSET 0.00657761 7.51539 -0.866263
              }
            }
          }
        }
      }
    }
  }
  JOINT LeftUpLeg
  {
    OFFSET 6.62609 -1.21505 -1.01927
    CHANNELS 3 Zrotation Xrotation Yrotation
    JOINT LeftUpLegRoll
    {
      OFFSET 0 17.9518 0
      CHANNELS 3 Zrotation Xrotation Yrotation
      JOINT LeftLeg
      {
        OFFSET 0 22.2303 0
        CHANNELS 3 Zrotation Xrotation Yrotation
        JOINT LeftLegRoll
        {
          OFFSET 0 22.5093 0
          CHANNELS 3 Zrotation Xrotation Yrotation
          JOINT LeftFoot
          {
            OFFSET 0 18.3575 0
            CHANNELS 3 Zrotation Xrotation Yrotation
            JOINT LeftToeBase
            {
              OFFSET 0 15.5183 0
              CHANNELS 3 Zrotation Xrotation Yrotation
              End Site
              {
                OFFSET -0.029478 7.51538 -0.866263
              }
            }
          }
        }
      }
    }
  }
}
MOTION
Frames: 11
Frame Time: 0.00208333
54.9156 93.7624 6.02333 -1.1779 -5.9675 -2.9466 0.239714 -1.37199 0.190629 0.48166 1.25993 0.355791 0.477735 2.90496 0.347906 -7.96333 11.2236 -0.431111 8.3816 4.61246 -1.94908 68.4964 -1.82877 -2.0859 121.068 45.4742 -39.0159 6.33121e-007 -1.02154e-006 -3.52406e-006 1.44095 85.3291 -5.4852 1.17614e-006 -8.07877e-008 -3 8.02887 -4.95145 0.697683 -69.5072 -4.36401 3.43651 -122.069 46.0994 24.7867 6.2795e-006 -5.46671e-007 6.07277e-006 -14.0036 74.7028 14.8318 -4.84934e-006 -3.26205e-006 3.00735 -8.0295 -4.95144 -0.697661 179.305 -1.68218 -0.774859 180 7.0153e-015 178.85 178.935 8.86718 179.623 -7.64135e-007 -7.34121e-006 0.171373 -19.6743 69.1908 20.5793 8.13649 25.2327 -3.48774 -177.057 -3.55247 1.37843 4.54188e-006 -4.6773e-006 -1.1008 -2.79725 -5.81364 0.0256055 -1.3803e-006 -6.85871e-006 -0.0573322 18.2439 67.5436 -19.1582 -8.13649 25.2327 3.48774 
54.9147 93.7604 6.0195 -1.17907 -5.96869 -2.94093 0.240252 -1.36952 0.190637 0.483048 1.26447 0.355731 0.479125 2.9095 0.347829 -7.96108 11.1892 -0.439754 8.37878 4.61056 -1.95505 68.465 -1.84964 -2.09348 121.014 45.4937 -38.7898 6.33121e-007 -1.02154e-006 -3.52406e-006 1.25659 85.4423 -5.33639 1.17614e-006 -8.07877e-008 -3 8.02887 -4.95145 0.697683 -69.4637 -4.38301 3.44315 -122.018 46.0644 24.6745 6.2795e-006 -5.46671e-007 6.07277e-006 -13.9693 74.694 14.7963 -4.84934e-006 -3.26205e-006 3.00735 -8.0295 -4.95144 -0.697661 179.308 -1.68054 -0.7773 180 7.0153e-015 178.85 178.936 8.86808 179.623 -7.64135e-007 -7.34121e-006 0.171348 -19.673 69.1893 20.5779 8.13649 25.2327 -3.48774 -177.057 -3.54012 1.3785 4.54188e-006 -4.6773e-006 -1.10077 -2.79501 -5.83081 0.0257855 -1.3803e-006 -6.85871e-006 -0.0573079 18.2432 67.5427 -19.1574 -8.13649 25.2327 3.48774 
54.9103 93.7627 6.01846 -1.18076 -5.97054 -2.936 0.24078 -1.36713 0.190585 0.48428 1.26869 0.355554 0.48036 2.91372 0.347636 -7.95498 11.1617 -0.448034 8.3737 4.60388 -1.9599 68.4351 -1.86839 -2.10012 120.959 45.5126 -38.5674 6.33121e-007 -1.02154e-006 -3.52406e-006 1.09702 85.5468 -5.20851 1.17614e-006 -8.07877e-008 -3 8.02887 -4.95145 0.697683 -69.4182 -4.40169 3.44953 -121.971 46.0279 24.5645 6.2795e-006 -5.46671e-007 6.07277e-006 -13.9352 74.6823 14.7603 -4.84934e-006 -3.26205e-006 3.00735 -8.0295 -4.95144 -0.697661 179.312 -1.67959 -0.779932 180 7.0153e-015 178.85 178.938 8.86839 179.622 -7.64135e-007 -7.34121e-006 0.171323 -19.6711 69.1872 20.5758 8.13649 25.2327 -3.48774 -177.055 -3.52846 1.37824 4.54188e-006 -4.6773e-006 -1.10075 -2.793 -5.84831 0.025897 -1.3803e-006 -6.85871e-006 -0.0572836 18.2433 67.5428 -19.1575 -8.13649 25.2327 3.48774 
54.9077 93.7625 6.01361 -1.183 -5.97296 -2.93169 0.241305 -1.36477 0.190431 0.48539 1.27267 0.355182 0.481474 2.9177 0.347248 -7.94509 11.14 -0.456234 8.36588 4.59267 -1.96392 68.4078 -1.88569 -2.10631 120.898 45.5321 -38.3471 6.33121e-007 -1.02154e-006 -3.52406e-006 0.958168 85.6425 -5.09751 1.17614e-006 -8.07877e-008 -3 8.02887 -4.95145 0.697683 -69.3696 -4.42038 3.45573 -121.928 45.9884 24.4563 6.2795e-006 -5.46671e-007 6.07277e-006 -13.9016 74.6673 14.7242 -4.84934e-006 -3.26205e-006 3.00735 -8.0295 -4.95144 -0.697661 179.317 -1.67909 -0.782868 180 7.0153e-015 178.85 178.939 8.86823 179.622 -7.64135e-007 -7.34121e-006 0.171296 -19.6685 69.1845 20.5732 8.13649 25.2327 -3.48774 -177.053 -3.517 1.3777 4.54188e-006 -4.6773e-006 -1.10072 -2.79107 -5.86677 0.0259404 -1.3803e-006 -6.85871e-006 -0.0572593 18.2442 67.544 -19.1585 -8.13649 25.2327 3.48774 
54.9068 93.7623 6.01143 -1.18573 -5.9759 -2.92795 0.241828 -1.36243 0.190199 0.486398 1.27644 0.354657 0.482489 2.92147 0.346709 -7.93191 11.1235 -0.464323 8.35572 4.57749 -1.96718 68.3829 -1.90165 -2.11205 120.834 45.5521 -38.1297 6.33121e-007 -1.02154e-006 -3.52406e-006 0.838851 85.7304 -5.00261 1.17614e-006 -8.07877e-008 -3 8.02887 -4.95145 0.697683 -69.3182 -4.43904 3.46176 -121.888 45.9466 24.3504 6.2795e-006 -5.46671e-007 6.07277e-006 -13.8687 74.6491 14.688 -4.84934e-006 -3.26205e-006 3.00735 -8.0295 -4.95144 -0.697661 179.322 -1.67906 -0.786057 180 7.0153e-015 178.85 178.94 8.86767 179.622 -7.64135e-007 -7.34121e-006 0.171268 -19.6654 69.1812 20.5699 8.13649 25.2327 -3.48774 -177.051 -3.50581 1.37691 4.54188e-006 -4.6773e-006 -1.1007 -2.78921 -5.88595 0.0259245 -1.3803e-006 -6.85871e-006 -0.057235 18.2459 67.5461 -19.1604 -8.13649 25.2327 3.48774 
54.9096 93.7633 6.00771 -1.18887 -5.97933 -2.92467 0.242349 -1.36011 0.18991 0.487324 1.28004 0.354025 0.483425 2.92506 0.346062 -7.91593 11.1116 -0.472271 8.3436 4.55892 -1.96974 68.3599 -1.91639 -2.11737 120.766 45.5723 -37.9155 6.33121e-007 -1.02154e-006 -3.52406e-006 0.737543 85.8115 -4.92267 1.17614e-006 -8.07877e-008 -3 8.02887 -4.95145 0.697683 -69.2646 -4.45761 3.46763 -121.852 45.9029 24.2472 6.2795e-006 -5.46671e-007 6.07277e-006 -13.8364 74.6278 14.6517 -4.84934e-006 -3.26205e-006 3.00735 -8.0295 -4.95144 -0.697661 179.328 -1.67951 -0.789445 180 7.0153e-015 178.85 178.942 8.86671 179.622 -7.64135e-007 -7.34121e-006 0.171239 -19.6619 69.1774 20.5662 8.13649 25.2327 -3.48774 -177.048 -3.49498 1.37589 4.54188e-006 -4.6773e-006 -1.10067 -2.78745 -5.90563 0.0258581 -1.3803e-006 -6.85871e-006 -0.0572107 18.2481 67.549 -19.1628 -8.13649 25.2327 3.48774 
54.9097 93.7642 5.99977 -1.19237 -5.98323 -2.92181 0.242869 -1.35781 0.189588 0.488191 1.28349 0.353327 0.4843 2.92852 0.345351 -7.89764 11.1036 -0.480046 8.3299 4.53751 -1.97169 68.3385 -1.93001 -2.12229 120.697 45.5924 -37.7049 6.33121e-007 -1.02154e-006 -3.52406e-006 0.652391 85.8866 -4.85624 1.17614e-006 -8.07877e-008 -3 8.02887 -4.95145 0.697683 -69.2094 -4.47604 3.47335 -121.82 45.8579 24.1473 6.2795e-006 -5.46671e-007 6.07277e-006 -13.8047 74.6035 14.6154 -4.84934e-006 -3.26205e-006 3.00735 -8.0295 -4.95144 -0.697661 179.334 -1.68045 -0.792979 180 7.0153e-015 178.85 178.943 8.86538 179.622 -7.64135e-007 -7.34121e-006 0.171208 -19.658 69.1732 20.562 8.13649 25.2327 -3.48774 -177.045 -3.48458 1.37465 4.54188e-006 -4.6773e-006 -1.10064 -2.78579 -5.92559 0.0257498 -1.3803e-006 -6.85871e-006 -0.0571865 18.2509 67.5525 -19.1659 -8.13649 25.2327 3.48774 
54.9099 93.7621 5.99737 -1.19615 -5.98756 -2.91927 0.243388 -1.35554 0.189254 0.489017 1.28683 0.352609 0.485136 2.93186 0.344618 -7.87754 11.0989 -0.487616 8.31501 4.51383 -1.97309 68.3181 -1.94262 -2.12682 120.626 45.6123 -37.4986 6.33121e-007 -1.02154e-006 -3.52406e-006 0.581235 85.9567 -4.80157 1.17614e-006 -8.07877e-008 -3 8.02887 -4.95145 0.697683 -69.153 -4.49429 3.47891 -121.792 45.8124 24.0511 6.2795e-006 -5.46671e-007 6.07277e-006 -13.7738 74.5763 14.5791 -4.84934e-006 -3.26205e-006 3.00735 -8.0295 -4.95144 -0.697661 179.34 -1.6819 -0.796607 180 7.0153e-015 178.85 178.944 8.86372 179.621 -7.64135e-007 -7.34121e-006 0.171177 -19.6539 69.1688 20.5576 8.13649 25.2327 -3.48774 -177.042 -3.4747 1.37322 4.54188e-006 -4.6773e-006 -1.10062 -2.78424 -5.94561 0.0256084 -1.3803e-006 -6.85871e-006 -0.0571622 18.2541 67.5564 -19.1693 -8.13649 25.2327 3.48774 
54.9087 93.7645 5.99545 -1.20014 -5.99228 -2.91698 0.243905 -1.35328 0.18893 0.489824 1.29009 0.351913 0.485953 2.93512 0.343908 -7.85613 11.0968 -0.494949 8.2993 4.48845 -1.97401 68.2985 -1.95433 -2.13097 120.555 45.6316 -37.2969 6.33121e-007 -1.02154e-006 -3.52406e-006 0.521668 86.0228 -4.75665 1.17614e-006 -8.07877e-008 -3 8.02887 -4.95145 0.697683 -69.0958 -4.5123 3.48432 -121.767 45.7668 23.9592 6.2795e-006 -5.46671e-007 6.07277e-006 -13.7434 74.5463 14.5429 -4.84934e-006 -3.26205e-006 3.00735 -8.0295 -4.95144 -0.697661 179.347 -1.68389 -0.800274 180 7.0153e-015 178.85 178.946 8.86175 179.621 -7.64135e-007 -7.34121e-006 0.171144 -19.6495 69.1641 20.553 8.13649 25.2327 -3.48774 -177.038 -3.4654 1.37161 4.54188e-006 -4.6773e-006 -1.10059 -2.78282 -5.96547 0.0254427 -1.3803e-006 -6.85871e-006 -0.0571379 18.2575 67.5608 -19.173 -8.13649 25.2327 3.48774 
54.9069 93.7676 5.99071 -1.20429 -5.99738 -2.91487 0.244423 -1.35105 0.18864 0.490632 1.29331 0.351284 0.48677 2.93834 0.343264 -7.8339 11.0968 -0.502015 8.28317 4.46194 -1.97453 68.2791 -1.96526 -2.13476 120.485 45.6502 -37.1004 6.33121e-007 -1.02154e-006 -3.52406e-006 0.470998 86.0857 -4.71919 1.17614e-006 -8.07877e-008 -3 8.02887 -4.95145 0.697683 -69.0386 -4.53002 3.4896 -121.746 45.7217 23.872 6.2795e-006 -5.46671e-007 6.07277e-006 -13.7138 74.5135 14.5067 -4.84934e-006 -3.26205e-006 3.00735 -8.0295 -4.95144 -0.697661 179.353 -1.68642 -0.803929 180 7.0153e-015 178.85 178.947 8.85954 179.621 -7.64135e-007 -7.34121e-006 0.17111 -19.6451 69.1593 20.5482 8.13649 25.2327 -3.48774 -177.034 -3.45678 1.36985 4.54188e-006 -4.6773e-006 -1.10057 -2.78152 -5.98494 0.0252613 -1.3803e-006 -6.85871e-006 -0.0571136 18.261 67.5652 -19.1768 -8.13649 25.2327 3.48774 
54.9085 93.7644 5.98806 -1.20852 -6.00281 -2.91287 0.24494 -1.34884 0.188404 0.491463 1.29651 0.350764 0.487609 2.94154 0.342729 -7.81135 11.0981 -0.508782 8.26698 4.43485 -1.97471 68.2597 -1.97552 -2.13821 120.417 45.6679 -36.9096 6.33121e-007 -1.02154e-006 -3.52406e-006 0.426347 86.1464 -4.68673 1.17614e-006 -8.07877e-008 -3 8.02887 -4.95145 0.697683 -68.9816 -4.54741 3.49473 -121.73 45.6778 23.7899 6.2795e-006 -5.46671e-007 6.07277e-006 -13.6849 74.4779 14.4708 -4.84934e-006 -3.26205e-006 3.00735 -8.0295 -4.95144 -0.697661 179.36 -1.68951 -0.807517 180 7.0153e-015 178.85 178.948 8.85705 179.621 -7.64135e-007 -7.34121e-006 0.171074 -19.6406 69.1545 20.5435 8.13649 25.2327 -3.48774 -177.03 -3.4489 1.36796 4.54188e-006 -4.6773e-006 -1.10054 -2.78037 -6.00379 0.0250729 -1.3803e-006 -6.85871e-006 -0.0570893 18.2646 67.5698 -19.1808 -8.13649 25.2327 3.48774 
